<svg id="Слой_1" data-name="Слой 1" xmlns="http://www.w3.org/2000/svg" viewBox="0 0 36 36"><defs><style>.cls-1{fill:none;}.cls-2{fill:#ef3124;}.cls-3{fill:#fff;}</style></defs><title>icon_nwtid_xl_color</title><g id="icon_cashback-bonus_xl_color" data-name="icon cashback-bonus xl color"><rect id="Rectangle-10" class="cls-1" width="36" height="36"/><ellipse class="cls-2" cx="18" cy="18.59" rx="15.66" ry="15.28"/><path class="cls-3" d="M15.69,8.75H15L13.62,6.67V8.75h-.7V5.59h.7L15,7.67V5.59h.7Z"/><path class="cls-3" d="M18.95,7.84l.46-2.25h.7l-.75,3.16h-.71l-.55-2.11-.55,2.11h-.71l-.75-3.16h.7l.46,2.24.56-2.24h.59Z"/><path class="cls-3" d="M23.08,6.12H22V8.75h-.7V6.12h-1V5.59h2.77Z"/></g><path class="cls-1" d="M8.58,10.42H27.42V30.19H8.58Z"/><path class="cls-3" d="M22.61,22.58a4.77,4.77,0,0,0-5.46-4.78,4.9,4.9,0,0,0-3.75,2.84,6.06,6.06,0,0,0-.34,3.14,8.94,8.94,0,0,0,2.55,5c.38.38,1-.23.57-.6A8.25,8.25,0,0,1,13.92,24a3.64,3.64,0,0,1-.07-.38.11.11,0,0,0,0-.07c0-.11,0,.09,0,0s0-.13,0-.19a5.2,5.2,0,0,1,0-.53,5.45,5.45,0,0,1,.11-1.09,3.74,3.74,0,0,1,.93-1.83,5.66,5.66,0,0,1,.65-.57,4.13,4.13,0,0,1,1-.55,4,4,0,0,1,2.6,0,3.7,3.7,0,0,1,1.6,1,3.16,3.16,0,0,1,.54.73,2.37,2.37,0,0,1,.18.38.2.2,0,0,1,0,.09c0,.09,0-.06,0,0l.07.19a4.35,4.35,0,0,1,.18.7c0,.06,0,.09,0,.15,0-.15,0,0,0,0a3.63,3.63,0,0,1,0,.43A.43.43,0,0,0,22.61,22.58Z"/><path class="cls-3" d="M17.37,22.54A4.75,4.75,0,0,0,18,24.86,4.32,4.32,0,0,0,20.45,27a6,6,0,0,0,2.51.13.44.44,0,0,0,.41-.43.42.42,0,0,0-.41-.43,5.71,5.71,0,0,1-2,0,3.08,3.08,0,0,1-.7-.26l-.32-.19a.59.59,0,0,0-.14-.09l-.07-.06h0s0,0,0,0a3.41,3.41,0,0,1-.5-.53L19,24.93c.05.06-.05-.07-.05-.09s-.13-.21-.2-.3A5.78,5.78,0,0,1,18.5,24s0,0,0-.06,0,0,0,0l-.05-.15c0-.09-.05-.19-.09-.28a5.1,5.1,0,0,1-.13-.51s0-.15,0-.06,0,0,0-.06v-.34A.41.41,0,0,0,17.37,22.54ZM10.9,17.93a.33.33,0,0,1,.07-.09.4.4,0,0,0,.07-.11s.09-.11,0,0c0,0,.05-.06.07-.09.23-.3.5-.6.77-.88a8.11,8.11,0,0,1,1.24-1,8.33,8.33,0,0,1,1.76-.92,8.24,8.24,0,0,1,2.24-.49,8.9,8.9,0,0,1,1,0l.5,0,.29,0,.16,0c.11,0-.09,0,0,0a.13.13,0,0,1,.09,0,9.45,9.45,0,0,1,1.6.41,8.47,8.47,0,0,1,3.91,3.12.4.4,0,0,0,.56.15.44.44,0,0,0,.14-.58,9.31,9.31,0,0,0-3.77-3.26,8.79,8.79,0,0,0-3.23-.79,9.53,9.53,0,0,0-3.18.32,9.4,9.4,0,0,0-3.59,2.07,8.17,8.17,0,0,0-1.42,1.66A.4.4,0,1,0,10.9,17.93Z"/><path class="cls-3" d="M12.2,25.8a7.87,7.87,0,0,1-.4-1.58l-.05-.36s0-.13,0,0a.18.18,0,0,0,0-.09c0-.07,0-.15,0-.23a6.8,6.8,0,0,1,0-.87,7.89,7.89,0,0,1,.05-.92.25.25,0,0,1,0-.11c0,.09,0,0,0,0s0-.15,0-.23a3.74,3.74,0,0,1,.11-.49,5.57,5.57,0,0,1,.79-1.81,5,5,0,0,1,.65-.77,6,6,0,0,1,.92-.75,6.15,6.15,0,0,1,2.82-1.05,6.71,6.71,0,0,1,3.21.47,5.66,5.66,0,0,1,2.94,2.62c.13.23.25.47.36.72s.13.26.18.4c0-.08,0,0,0,0a3.2,3.2,0,0,1,.13.4,2.26,2.26,0,0,1,.07.34c0,.06,0,.13,0,.21s0,.07,0,.11c0-.11,0,.06,0,.07a4,4,0,0,1,0,.47v.45h0a1.71,1.71,0,0,1-.34.88l0,.06-.09.09a.8.8,0,0,1-.14.13,1.56,1.56,0,0,1-.61.3,1.87,1.87,0,0,1-1.45-.13,1.83,1.83,0,0,1-.77-.81,1.4,1.4,0,0,1-.09-.23.7.7,0,0,1,0-.19c0-.07-.07-.23,0-.06a1.91,1.91,0,0,1,0-.32c0-.15,0-.3-.05-.47a2.62,2.62,0,0,0-4.49-1.17c-1,1.17-.7,2.88-.18,4.2a6.63,6.63,0,0,0,3.12,3.46,9.42,9.42,0,0,0,1.42.6c.5.17.72-.66.22-.83A7.37,7.37,0,0,1,18,26.95a5.61,5.61,0,0,1-1.33-1.68l-.22-.45,0,0a.33.33,0,0,1,0-.09,1.1,1.1,0,0,1-.07-.23,6.19,6.19,0,0,1-.22-.83c0-.13,0-.24-.05-.36s0-.06,0-.07,0,0,0,0,0-.11,0-.17a2.22,2.22,0,0,1,.25-1.36A1.77,1.77,0,0,1,18.64,21a1.67,1.67,0,0,1,.77.66,2.84,2.84,0,0,1,.25,1.19c0,.11,0,0,0,0s0,.09,0,.15,0,.13,0,.19a2.55,2.55,0,0,0,.14.4,1.75,1.75,0,0,0,.23.4,2.61,2.61,0,0,0,1.36,1,2.66,2.66,0,0,0,2.82-.79,4.09,4.09,0,0,0,.34-3.71,7.42,7.42,0,0,0-1.17-2.18,6.23,6.23,0,0,0-2-1.79,7.19,7.19,0,0,0-6.61-.26A6.64,6.64,0,0,0,11.5,19.7a8.26,8.26,0,0,0-.5,3.86,10.31,10.31,0,0,0,.47,2.33.27.27,0,0,1,0,.11c.09.23.27.38.5.3A.42.42,0,0,0,12.2,25.8Zm.92-12.44a4.37,4.37,0,0,1,.5-.28l.25-.13.11-.06,0,0,.13-.06c.23-.09.48-.19.74-.26a9.73,9.73,0,0,1,4.42-.36,10.79,10.79,0,0,1,3.3,1.13.39.39,0,0,0,.56-.15.44.44,0,0,0-.14-.58,11.07,11.07,0,0,0-5.83-1.32,10.47,10.47,0,0,0-3.77,1,4.92,4.92,0,0,0-.68.38.44.44,0,0,0-.14.58A.38.38,0,0,0,13.11,13.36Z"/></svg>