<svg id="Слой_1" data-name="Слой 1" xmlns="http://www.w3.org/2000/svg" viewBox="0 0 801 801"><defs><style>.cls-1{fill:#ef3124;stroke:#201600;stroke-miterlimit:10;}.cls-2{fill:#fff;}</style></defs><title>qr-54343</title><rect class="cls-1" x="0.5" y="0.5" width="800" height="800"/><rect class="cls-2" x="263.6" y="20.58" width="30.52" height="30.32"/><rect class="cls-2" x="385.68" y="20.58" width="30.52" height="30.32"/><rect class="cls-2" x="446.72" y="20.58" width="30.52" height="30.32"/><rect class="cls-2" x="477.24" y="20.58" width="30.52" height="30.32"/><rect class="cls-2" x="507.76" y="20.58" width="30.52" height="30.32"/><rect class="cls-2" x="294.12" y="50.9" width="30.52" height="30.32"/><rect class="cls-2" x="385.68" y="50.9" width="30.52" height="30.32"/><rect class="cls-2" x="416.2" y="50.9" width="30.52" height="30.32"/><rect class="cls-2" x="446.72" y="50.9" width="30.52" height="30.32"/><rect class="cls-2" x="507.76" y="50.9" width="30.52" height="30.32"/><rect class="cls-2" x="263.6" y="81.22" width="30.52" height="30.32"/><rect class="cls-2" x="355.16" y="81.22" width="30.52" height="30.32"/><rect class="cls-2" x="446.72" y="81.22" width="30.52" height="30.32"/><rect class="cls-2" x="477.24" y="81.22" width="30.52" height="30.32"/><rect class="cls-2" x="294.12" y="111.54" width="30.52" height="30.32"/><rect class="cls-2" x="446.72" y="111.54" width="30.52" height="30.32"/><rect class="cls-2" x="477.24" y="111.54" width="30.52" height="30.32"/><rect class="cls-2" x="294.12" y="141.86" width="30.52" height="30.32"/><rect class="cls-2" x="324.64" y="141.86" width="30.52" height="30.32"/><rect class="cls-2" x="355.16" y="141.86" width="30.52" height="30.32"/><rect class="cls-2" x="416.2" y="141.86" width="30.52" height="30.32"/><rect class="cls-2" x="446.72" y="141.86" width="30.52" height="30.32"/><rect class="cls-2" x="263.6" y="172.18" width="30.52" height="30.32"/><rect class="cls-2" x="324.64" y="172.18" width="30.52" height="30.32"/><rect class="cls-2" x="385.68" y="172.18" width="30.52" height="30.32"/><rect class="cls-2" x="507.76" y="172.18" width="30.52" height="30.32"/><rect class="cls-2" x="263.6" y="202.5" width="30.52" height="30.32"/><rect class="cls-2" x="324.64" y="202.5" width="30.52" height="30.32"/><rect class="cls-2" x="385.68" y="202.5" width="30.52" height="30.32"/><rect class="cls-2" x="446.72" y="202.5" width="30.52" height="30.32"/><rect class="cls-2" x="507.76" y="202.5" width="30.52" height="30.32"/><rect class="cls-2" x="324.64" y="232.82" width="30.52" height="30.32"/><rect class="cls-2" x="355.16" y="232.82" width="30.52" height="30.32"/><rect class="cls-2" x="385.68" y="232.82" width="30.52" height="30.32"/><rect class="cls-2" x="446.72" y="232.82" width="30.52" height="30.32"/><rect class="cls-2" x="477.24" y="232.82" width="30.52" height="30.32"/><rect class="cls-2" x="507.76" y="232.82" width="30.52" height="30.32"/><rect class="cls-2" x="19.44" y="263.14" width="30.52" height="30.32"/><rect class="cls-2" x="80.48" y="263.14" width="30.52" height="30.32"/><rect class="cls-2" x="202.56" y="263.14" width="30.52" height="30.32"/><rect class="cls-2" x="233.08" y="263.14" width="30.52" height="30.32"/><rect class="cls-2" x="294.12" y="263.14" width="30.52" height="30.32"/><rect class="cls-2" x="324.64" y="263.14" width="30.52" height="30.32"/><rect class="cls-2" x="355.16" y="263.14" width="30.52" height="30.32"/><rect class="cls-2" x="416.2" y="263.14" width="30.52" height="30.32"/><rect class="cls-2" x="446.72" y="263.14" width="30.52" height="30.32"/><rect class="cls-2" x="507.76" y="263.14" width="30.52" height="30.32"/><rect class="cls-2" x="599.32" y="263.14" width="30.52" height="30.32"/><rect class="cls-2" x="690.88" y="263.14" width="30.52" height="30.32"/><rect class="cls-2" x="751.92" y="263.14" width="30.52" height="30.32"/><rect class="cls-2" x="19.44" y="293.46" width="30.52" height="30.32"/><rect class="cls-2" x="80.48" y="293.46" width="30.52" height="30.32"/><rect class="cls-2" x="172.04" y="293.46" width="30.52" height="30.32"/><rect class="cls-2" x="233.08" y="293.46" width="30.52" height="30.32"/><rect class="cls-2" x="294.12" y="293.46" width="30.52" height="30.32"/><rect class="cls-2" x="385.68" y="293.46" width="30.52" height="30.32"/><rect class="cls-2" x="416.2" y="293.46" width="30.52" height="30.32"/><rect class="cls-2" x="446.72" y="293.46" width="30.52" height="30.32"/><rect class="cls-2" x="477.24" y="293.46" width="30.52" height="30.32"/><rect class="cls-2" x="507.76" y="293.46" width="30.52" height="30.32"/><rect class="cls-2" x="538.28" y="293.46" width="30.52" height="30.32"/><rect class="cls-2" x="568.8" y="293.46" width="30.52" height="30.32"/><rect class="cls-2" x="599.32" y="293.46" width="30.52" height="30.32"/><rect class="cls-2" x="660.36" y="293.46" width="30.52" height="30.32"/><rect class="cls-2" x="721.4" y="293.46" width="30.52" height="30.32"/><rect class="cls-2" x="751.92" y="293.46" width="30.52" height="30.32"/><rect class="cls-2" x="111" y="323.78" width="30.52" height="30.32"/><rect class="cls-2" x="141.52" y="323.78" width="30.52" height="30.32"/><rect class="cls-2" x="172.04" y="323.78" width="30.52" height="30.32"/><rect class="cls-2" x="202.56" y="323.78" width="30.52" height="30.32"/><rect class="cls-2" x="233.08" y="323.78" width="30.52" height="30.32"/><rect class="cls-2" x="324.64" y="323.78" width="30.52" height="30.32"/><rect class="cls-2" x="477.24" y="323.78" width="30.52" height="30.32"/><rect class="cls-2" x="568.8" y="323.78" width="30.52" height="30.32"/><rect class="cls-2" x="599.32" y="323.78" width="30.52" height="30.32"/><rect class="cls-2" x="660.36" y="323.78" width="30.52" height="30.32"/><rect class="cls-2" x="690.88" y="323.78" width="30.52" height="30.32"/><rect class="cls-2" x="751.92" y="323.78" width="30.52" height="30.32"/><rect class="cls-2" x="141.52" y="354.1" width="30.52" height="30.32"/><rect class="cls-2" x="233.08" y="354.1" width="30.52" height="30.32"/><rect class="cls-2" x="263.6" y="354.1" width="30.52" height="30.32"/><rect class="cls-2" x="385.68" y="354.1" width="30.52" height="30.32"/><rect class="cls-2" x="416.2" y="354.1" width="30.52" height="30.32"/><rect class="cls-2" x="477.24" y="354.1" width="30.52" height="30.32"/><rect class="cls-2" x="538.28" y="354.1" width="30.52" height="30.32"/><rect class="cls-2" x="568.8" y="354.1" width="30.52" height="30.32"/><rect class="cls-2" x="599.32" y="354.1" width="30.52" height="30.32"/><rect class="cls-2" x="629.84" y="354.1" width="30.52" height="30.32"/><rect class="cls-2" x="660.36" y="354.1" width="30.52" height="30.32"/><rect class="cls-2" x="19.44" y="384.42" width="30.52" height="30.32"/><rect class="cls-2" x="49.96" y="384.42" width="30.52" height="30.32"/><rect class="cls-2" x="111" y="384.42" width="30.52" height="30.32"/><rect class="cls-2" x="202.56" y="384.42" width="30.52" height="30.32"/><rect class="cls-2" x="263.6" y="384.42" width="30.52" height="30.32"/><rect class="cls-2" x="294.12" y="384.42" width="30.52" height="30.32"/><rect class="cls-2" x="324.64" y="384.42" width="30.52" height="30.32"/><rect class="cls-2" x="385.68" y="384.42" width="30.52" height="30.32"/><rect class="cls-2" x="416.2" y="384.42" width="30.52" height="30.32"/><rect class="cls-2" x="477.24" y="384.42" width="30.52" height="30.32"/><rect class="cls-2" x="507.76" y="384.42" width="30.52" height="30.32"/><rect class="cls-2" x="568.8" y="384.42" width="30.52" height="30.32"/><rect class="cls-2" x="599.32" y="384.42" width="30.52" height="30.32"/><rect class="cls-2" x="751.92" y="384.42" width="30.52" height="30.32"/><rect class="cls-2" x="111" y="414.74" width="30.52" height="30.32"/><rect class="cls-2" x="141.52" y="414.74" width="30.52" height="30.32"/><rect class="cls-2" x="233.08" y="414.74" width="30.52" height="30.32"/><rect class="cls-2" x="263.6" y="414.74" width="30.52" height="30.32"/><rect class="cls-2" x="385.68" y="414.74" width="30.52" height="30.32"/><rect class="cls-2" x="477.24" y="414.74" width="30.52" height="30.32"/><rect class="cls-2" x="507.76" y="414.74" width="30.52" height="30.32"/><rect class="cls-2" x="538.28" y="414.74" width="30.52" height="30.32"/><rect class="cls-2" x="568.8" y="414.74" width="30.52" height="30.32"/><rect class="cls-2" x="599.32" y="414.74" width="30.52" height="30.32"/><rect class="cls-2" x="721.4" y="414.74" width="30.52" height="30.32"/><rect class="cls-2" x="751.92" y="414.74" width="30.52" height="30.32"/><rect class="cls-2" x="19.44" y="445.06" width="30.52" height="30.32"/><rect class="cls-2" x="49.96" y="445.06" width="30.52" height="30.32"/><rect class="cls-2" x="80.48" y="445.06" width="30.52" height="30.32"/><rect class="cls-2" x="111" y="445.06" width="30.52" height="30.32"/><rect class="cls-2" x="141.52" y="445.06" width="30.52" height="30.32"/><rect class="cls-2" x="202.56" y="445.06" width="30.52" height="30.32"/><rect class="cls-2" x="263.6" y="445.06" width="30.52" height="30.32"/><rect class="cls-2" x="324.64" y="445.06" width="30.52" height="30.32"/><rect class="cls-2" x="385.68" y="445.06" width="30.52" height="30.32"/><rect class="cls-2" x="416.2" y="445.06" width="30.52" height="30.32"/><rect class="cls-2" x="446.72" y="445.06" width="30.52" height="30.32"/><rect class="cls-2" x="477.24" y="445.06" width="30.52" height="30.32"/><rect class="cls-2" x="507.76" y="445.06" width="30.52" height="30.32"/><rect class="cls-2" x="568.8" y="445.06" width="30.52" height="30.32"/><rect class="cls-2" x="660.36" y="445.06" width="30.52" height="30.32"/><rect class="cls-2" x="690.88" y="445.06" width="30.52" height="30.32"/><rect class="cls-2" x="751.92" y="445.06" width="30.52" height="30.32"/><rect class="cls-2" x="111" y="475.38" width="30.52" height="30.32"/><rect class="cls-2" x="141.52" y="475.38" width="30.52" height="30.32"/><rect class="cls-2" x="172.04" y="475.38" width="30.52" height="30.32"/><rect class="cls-2" x="294.12" y="475.38" width="30.52" height="30.32"/><rect class="cls-2" x="324.64" y="475.38" width="30.52" height="30.32"/><rect class="cls-2" x="355.16" y="475.38" width="30.52" height="30.32"/><rect class="cls-2" x="385.68" y="475.38" width="30.52" height="30.32"/><rect class="cls-2" x="446.72" y="475.38" width="30.52" height="30.32"/><rect class="cls-2" x="477.24" y="475.38" width="30.52" height="30.32"/><rect class="cls-2" x="507.76" y="475.38" width="30.52" height="30.32"/><rect class="cls-2" x="599.32" y="475.38" width="30.52" height="30.32"/><rect class="cls-2" x="629.84" y="475.38" width="30.52" height="30.32"/><rect class="cls-2" x="660.36" y="475.38" width="30.52" height="30.32"/><rect class="cls-2" x="19.44" y="505.7" width="30.52" height="30.32"/><rect class="cls-2" x="49.96" y="505.7" width="30.52" height="30.32"/><rect class="cls-2" x="80.48" y="505.7" width="30.52" height="30.32"/><rect class="cls-2" x="172.04" y="505.7" width="30.52" height="30.32"/><rect class="cls-2" x="202.56" y="505.7" width="30.52" height="30.32"/><rect class="cls-2" x="233.08" y="505.7" width="30.52" height="30.32"/><rect class="cls-2" x="263.6" y="505.7" width="30.52" height="30.32"/><rect class="cls-2" x="294.12" y="505.7" width="30.52" height="30.32"/><rect class="cls-2" x="416.2" y="505.7" width="30.52" height="30.32"/><rect class="cls-2" x="446.72" y="505.7" width="30.52" height="30.32"/><rect class="cls-2" x="507.76" y="505.7" width="30.52" height="30.32"/><rect class="cls-2" x="538.28" y="505.7" width="30.52" height="30.32"/><rect class="cls-2" x="568.8" y="505.7" width="30.52" height="30.32"/><rect class="cls-2" x="599.32" y="505.7" width="30.52" height="30.32"/><rect class="cls-2" x="629.84" y="505.7" width="30.52" height="30.32"/><rect class="cls-2" x="721.4" y="505.7" width="30.52" height="30.32"/><rect class="cls-2" x="263.6" y="536.02" width="30.52" height="30.32"/><rect class="cls-2" x="294.12" y="536.02" width="30.52" height="30.32"/><rect class="cls-2" x="324.64" y="536.02" width="30.52" height="30.32"/><rect class="cls-2" x="416.2" y="536.02" width="30.52" height="30.32"/><rect class="cls-2" x="446.72" y="536.02" width="30.52" height="30.32"/><rect class="cls-2" x="507.76" y="536.02" width="30.52" height="30.32"/><rect class="cls-2" x="629.84" y="536.02" width="30.52" height="30.32"/><rect class="cls-2" x="751.92" y="536.02" width="30.52" height="30.32"/><rect class="cls-2" x="263.6" y="566.34" width="30.52" height="30.32"/><rect class="cls-2" x="294.12" y="566.34" width="30.52" height="30.32"/><rect class="cls-2" x="324.64" y="566.34" width="30.52" height="30.32"/><rect class="cls-2" x="355.16" y="566.34" width="30.52" height="30.32"/><rect class="cls-2" x="507.76" y="566.34" width="30.52" height="30.32"/><rect class="cls-2" x="568.8" y="566.34" width="30.52" height="30.32"/><rect class="cls-2" x="629.84" y="566.34" width="30.52" height="30.32"/><rect class="cls-2" x="751.92" y="566.34" width="30.52" height="30.32"/><rect class="cls-2" x="416.2" y="596.66" width="30.52" height="30.32"/><rect class="cls-2" x="507.76" y="596.66" width="30.52" height="30.32"/><rect class="cls-2" x="629.84" y="596.66" width="30.52" height="30.32"/><rect class="cls-2" x="721.4" y="596.66" width="30.52" height="30.32"/><rect class="cls-2" x="294.12" y="626.98" width="30.52" height="30.32"/><rect class="cls-2" x="324.64" y="626.98" width="30.52" height="30.32"/><rect class="cls-2" x="355.16" y="626.98" width="30.52" height="30.32"/><rect class="cls-2" x="385.68" y="626.98" width="30.52" height="30.32"/><rect class="cls-2" x="416.2" y="626.98" width="30.52" height="30.32"/><rect class="cls-2" x="477.24" y="626.98" width="30.52" height="30.32"/><rect class="cls-2" x="507.76" y="626.98" width="30.52" height="30.32"/><rect class="cls-2" x="538.28" y="626.98" width="30.52" height="30.32"/><rect class="cls-2" x="568.8" y="626.98" width="30.52" height="30.32"/><rect class="cls-2" x="599.32" y="626.98" width="30.52" height="30.32"/><rect class="cls-2" x="629.84" y="626.98" width="30.52" height="30.32"/><rect class="cls-2" x="721.4" y="626.98" width="30.52" height="30.32"/><rect class="cls-2" x="751.92" y="626.98" width="30.52" height="30.32"/><rect class="cls-2" x="294.12" y="657.3" width="30.52" height="30.32"/><rect class="cls-2" x="324.64" y="657.3" width="30.52" height="30.32"/><rect class="cls-2" x="385.68" y="657.3" width="30.52" height="30.32"/><rect class="cls-2" x="507.76" y="657.3" width="30.52" height="30.32"/><rect class="cls-2" x="538.28" y="657.3" width="30.52" height="30.32"/><rect class="cls-2" x="629.84" y="657.3" width="30.52" height="30.32"/><rect class="cls-2" x="690.88" y="657.3" width="30.52" height="30.32"/><rect class="cls-2" x="721.4" y="657.3" width="30.52" height="30.32"/><rect class="cls-2" x="263.6" y="687.62" width="30.52" height="30.32"/><rect class="cls-2" x="385.68" y="687.62" width="30.52" height="30.32"/><rect class="cls-2" x="416.2" y="687.62" width="30.52" height="30.32"/><rect class="cls-2" x="446.72" y="687.62" width="30.52" height="30.32"/><rect class="cls-2" x="538.28" y="687.62" width="30.52" height="30.32"/><rect class="cls-2" x="599.32" y="687.62" width="30.52" height="30.32"/><rect class="cls-2" x="629.84" y="687.62" width="30.52" height="30.32"/><rect class="cls-2" x="660.36" y="687.62" width="30.52" height="30.32"/><rect class="cls-2" x="721.4" y="687.62" width="30.52" height="30.32"/><rect class="cls-2" x="751.92" y="687.62" width="30.52" height="30.32"/><rect class="cls-2" x="324.64" y="717.94" width="30.52" height="30.32"/><rect class="cls-2" x="355.16" y="717.94" width="30.52" height="30.32"/><rect class="cls-2" x="385.68" y="717.94" width="30.52" height="30.32"/><rect class="cls-2" x="446.72" y="717.94" width="30.52" height="30.32"/><rect class="cls-2" x="507.76" y="717.94" width="30.52" height="30.32"/><rect class="cls-2" x="568.8" y="717.94" width="30.52" height="30.32"/><rect class="cls-2" x="599.32" y="717.94" width="30.52" height="30.32"/><rect class="cls-2" x="629.84" y="717.94" width="30.52" height="30.32"/><rect class="cls-2" x="263.6" y="748.26" width="30.52" height="30.32"/><rect class="cls-2" x="294.12" y="748.26" width="30.52" height="30.32"/><rect class="cls-2" x="324.64" y="748.26" width="30.52" height="30.32"/><rect class="cls-2" x="416.2" y="748.26" width="30.52" height="30.32"/><rect class="cls-2" x="446.72" y="748.26" width="30.52" height="30.32"/><rect class="cls-2" x="507.76" y="748.26" width="30.52" height="30.32"/><rect class="cls-2" x="568.8" y="748.26" width="30.52" height="30.32"/><rect class="cls-2" x="660.36" y="748.26" width="30.52" height="30.32"/><rect class="cls-2" x="751.92" y="748.26" width="30.52" height="30.32"/><rect class="cls-2" x="51.49" y="52.42" width="149.55" height="148.57"/><path class="cls-2" d="M200.59,21H19V233.24H232.64V21Zm0,180.4H51V52.84H200.59Z" transform="translate(0.44 -0.42)"/><rect class="cls-2" x="600.85" y="52.42" width="149.55" height="148.57"/><path class="cls-2" d="M750,21H568.36V233.24H782V21Zm0,180.4H600.41V52.84H750Z" transform="translate(0.44 -0.42)"/><rect class="cls-2" x="51.49" y="598.18" width="149.55" height="148.57"/><path class="cls-2" d="M200.59,566.76H19V779H232.64V566.76Zm0,180.4H51V598.6H200.59Z" transform="translate(0.44 -0.42)"/><rect class="cls-2" x="80.48" y="81.22" width="91.56" height="90.96"/><rect class="cls-2" x="629.84" y="81.22" width="91.56" height="90.96"/><rect class="cls-2" x="80.48" y="626.98" width="91.56" height="90.96"/><path d="M86.75,388.53H56.52v26.55H92v16.41H40.78V332.36H91.89V348.9H56.52v23.62H86.75Z" transform="translate(0.44 -0.42)"/><path d="M129.51,395.2H117v36.29H101.23V332.36h28.39q13.54,0,20.88,7.83t7.35,22.13q0,10.14-3.38,16.92A25.56,25.56,0,0,1,144.2,390l16.53,40.51v1h-16.9ZM117,378.65h12.7q5.93,0,9.18-3.91t3.25-10.79q0-7-3.07-11t-9.42-4H117Z" transform="translate(0.44 -0.42)"/><path d="M198.09,395.2H185.55v36.29H169.81V332.36h28.39q13.54,0,20.88,7.83t7.35,22.13q0,10.14-3.38,16.92A25.56,25.56,0,0,1,212.78,390l16.53,40.51v1h-16.9Zm-12.54-16.54h12.7q5.93,0,9.18-3.91t3.25-10.79q0-7-3.07-11t-9.42-4H185.55Z" transform="translate(0.44 -0.42)"/><path d="M301.14,384.17q0,14.64-4,25.67t-11.41,17a27.2,27.2,0,0,1-34,.07Q244.31,421,240.22,410a73,73,0,0,1-4.14-25.29v-4.9q0-14.64,4.07-25.77T251.63,337a27.16,27.16,0,0,1,33.95,0q7.42,6,11.49,17.09a74.72,74.72,0,0,1,4.07,25.7Zm-16-4.49q0-15.59-4.3-23.69t-12.28-8.1q-7.92,0-12.23,8T252,379.34v4.83q0,15.18,4.3,23.55t12.38,8.37q7.92,0,12.17-8.07t4.3-23.52Z" transform="translate(0.44 -0.42)"/><path d="M340.86,395.2H328.32v36.29H312.58V332.36H341q13.54,0,20.88,7.83t7.35,22.13q0,10.14-3.38,16.92A25.57,25.57,0,0,1,355.55,390l16.53,40.51v1h-16.9Zm-12.54-16.54H341q5.93,0,9.18-3.91t3.25-10.79q0-7-3.07-11t-9.42-4H328.32Z" transform="translate(0.44 -0.42)"/><path d="M422.19,446.87h-47.8V431.48h47.8Z" transform="translate(0.44 -0.42)"/><path d="M470.14,446.87h-47.8V431.48h47.8Z" transform="translate(0.44 -0.42)"/><path d="M477.7,382.74l4.41-50.38h42.81v16.41H494.54l-1.89,21.31a20.45,20.45,0,0,1,28.6,5q6.19,8.78,6.19,24.58a44.86,44.86,0,0,1-3.12,17.19,26.48,26.48,0,0,1-8.95,11.78,22.93,22.93,0,0,1-13.75,4.19,24.13,24.13,0,0,1-12.86-3.64A25.58,25.58,0,0,1,479.41,419a34,34,0,0,1-3.65-15h15q.47,6.19,3.33,9.63a9.26,9.26,0,0,0,7.48,3.44,8.71,8.71,0,0,0,7.92-4.8q2.78-4.8,2.78-13.58,0-8.44-3.2-12.93a10.49,10.49,0,0,0-9.08-4.49,11.31,11.31,0,0,0-8.76,3.68l-1.47,1.77Z" transform="translate(0.44 -0.42)"/><path d="M582,394.18h8.66V410H582v21.44H566.79V410H535.47l-.68-12.39,31.85-65.29H582Zm-32.06,0h16.89v-35l-1,2.25Z" transform="translate(0.44 -0.42)"/><path d="M614.17,373.21h8.08q5.77,0,8.55-3.74t2.78-9.94q0-6-2.76-9.33a9.3,9.3,0,0,0-7.58-3.34A9.65,9.65,0,0,0,616,350,11.24,11.24,0,0,0,613,358H597.86a29.56,29.56,0,0,1,3.23-13.92,23.92,23.92,0,0,1,9-9.63A24.4,24.4,0,0,1,622.88,331q12.12,0,19,7.52t6.87,20.73a25.23,25.23,0,0,1-3.2,12.53,23,23,0,0,1-8.4,8.78,20.15,20.15,0,0,1,9.63,9A29.85,29.85,0,0,1,650,403.71q0,13.21-7.42,21.17t-19.65,8q-11.44,0-18.71-7.83t-7.27-20.7h15.16a13,13,0,0,0,3.23,9.12,11.11,11.11,0,0,0,16.42-.17q3.07-3.71,3.07-9.84,0-14.84-12.59-14.84h-8Z" transform="translate(0.44 -0.42)"/><path d="M705.26,394.18h8.66V410h-8.66v21.44H690.1V410H658.77l-.68-12.39,31.85-65.29h15.32Zm-32.06,0H690.1v-35l-1,2.25Z" transform="translate(0.44 -0.42)"/><path d="M737.48,373.21h8.08q5.77,0,8.55-3.74t2.78-9.94q0-6-2.76-9.33a9.3,9.3,0,0,0-7.58-3.34,9.65,9.65,0,0,0-7.29,3.1,11.24,11.24,0,0,0-2.94,8.07H721.16a29.56,29.56,0,0,1,3.23-13.92,23.92,23.92,0,0,1,9-9.63A24.4,24.4,0,0,1,746.19,331q12.12,0,19,7.52t6.87,20.73a25.23,25.23,0,0,1-3.2,12.53,23,23,0,0,1-8.4,8.78,20.15,20.15,0,0,1,9.63,9,29.85,29.85,0,0,1,3.17,14.16q0,13.21-7.42,21.17t-19.65,8q-11.44,0-18.71-7.83t-7.27-20.7h15.16a13,13,0,0,0,3.23,9.12,11.11,11.11,0,0,0,16.42-.17q3.07-3.71,3.07-9.84,0-14.84-12.59-14.84h-8Z" transform="translate(0.44 -0.42)"/></svg>