<svg id="Слой_1" data-name="Слой 1" xmlns="http://www.w3.org/2000/svg" viewBox="0 0 264.82 46"><defs><style>.cls-1{fill:#0b1f35;}.cls-2{fill:#ef3124;}</style></defs><title>nwt-logo</title><path class="cls-1" d="M69.08,36.86h-5.5L52.85,18.79V36.86h-5.5V9.28h5.5L63.58,27.34V9.28h5.5Z"/><path class="cls-1" d="M94.68,28.86,98.3,9.28h5.5L97.9,36.86H92.4L88.11,18.52,83.69,36.86h-5.5l-6-27.58h5.5l3.62,19.44L85.7,9.28h4.69Z"/><path class="cls-1" d="M127.13,14H119V36.86h-5.5V14h-8V9.28h21.72Z"/><path class="cls-1" d="M144.29,36.86h-5.5V9.28h5.5Z"/><path class="cls-1" d="M171.11,36.86h-5.5L154.88,18.79V36.86h-5.5V9.28h5.5l10.73,18.06V9.28h5.5Z"/><path class="cls-1" d="M185.85,30l6-20.68h6.17l-9.39,27.58H182.9L173.65,9.28h6.17Z"/><path class="cls-1" d="M216.56,24.86H206v7.31H218.3v4.69H200.47V9.28H218.3v4.55H206v6.48h10.59Z"/><path class="cls-1" d="M235.46,29.55a3.07,3.07,0,0,0-1.07-2.48,11.44,11.44,0,0,0-4-1.79,31,31,0,0,1-4.56-1.93c-3.08-1.65-4.56-4-4.56-6.76a7,7,0,0,1,1.21-4,9,9,0,0,1,3.49-2.76,13.07,13.07,0,0,1,10.19.14,7.59,7.59,0,0,1,3.49,3,8,8,0,0,1,1.21,4.41h-5.5a3.61,3.61,0,0,0-1.21-2.9,4.22,4.22,0,0,0-3.08-1.1,4.88,4.88,0,0,0-3.08.83,3,3,0,0,0-1.07,2.34,2.52,2.52,0,0,0,1.34,2.21,18.63,18.63,0,0,0,3.89,1.65A17.8,17.8,0,0,1,238.95,24a7,7,0,0,1,2.15,5.38,6.93,6.93,0,0,1-2.68,5.65,11.24,11.24,0,0,1-7.11,2.07,15.21,15.21,0,0,1-5.63-1.1,8.24,8.24,0,0,1-3.89-3.17,8,8,0,0,1-1.34-4.69h5.5q0,4.55,5.23,4.55a5.15,5.15,0,0,0,3.08-.83A2.73,2.73,0,0,0,235.46,29.55Z"/><path class="cls-1" d="M264.82,14h-8.18V36.86h-5.5V14h-8V9.28h21.72V14Z"/><rect class="cls-2" x="3.5" y="6.1" width="33.8" height="33.8"/><rect class="cls-2" width="42.33" height="46"/></svg>