<svg id="Слой_1" data-name="Слой 1" xmlns="http://www.w3.org/2000/svg" viewBox="0 0 39.44 47.88"><defs><style>.cls-1,.cls-4{fill:#fff;}.cls-2{fill:#ef3124;}.cls-3{fill:#0b1f35;}.cls-4{fill-rule:evenodd;}</style></defs><title>ADS</title><rect class="cls-1" x="10.73" y="37.05" width="17.97" height="9.56"/><rect class="cls-2" x="11.16" y="37.89" width="17.15" height="7.84"/><path class="cls-3" d="M34.88,48.17h-18a.45.45,0,0,1-.49-.38V38.24a.45.45,0,0,1,.49-.38h18a.45.45,0,0,1,.49.38V47.8A.45.45,0,0,1,34.88,48.17ZM17.4,47.42h17v-8.8h-17Z" transform="translate(-6.18 -1.19)"/><path class="cls-4" d="M40.2,1.56H11.6c-2.71,0-4.93,1.23-4.93,2.74V38c0,1.51,2.22,2.74,4.93,2.74H40.2c2.71,0,4.92-1.23,4.92-2.74V4.3C45.12,2.79,42.91,1.56,40.2,1.56Z" transform="translate(-6.18 -1.19)"/><path class="cls-3" d="M40.2,41.15H11.6c-3,0-5.42-1.4-5.42-3.11V4.3c0-1.72,2.43-3.11,5.42-3.11H40.2c3,0,5.42,1.4,5.42,3.11V38C45.61,39.75,43.18,41.15,40.2,41.15ZM11.6,1.94C9.15,1.94,7.16,3,7.16,4.3V38c0,1.3,2,2.36,4.44,2.36H40.2c2.44,0,4.43-1.06,4.43-2.36V4.3c0-1.3-2-2.36-4.43-2.36Z" transform="translate(-6.18 -1.19)"/><rect class="cls-1" x="3.28" y="3.45" width="32.88" height="33.07"/><path class="cls-3" d="M42.34,38.08H9.46c-.27,0-.5-.17-.5-.38V4.64c0-.21.22-.38.5-.38H42.34c.27,0,.5.17.5.38V37.7C42.83,37.91,42.61,38.08,42.34,38.08ZM9.95,37.33H41.84V5H9.95Z" transform="translate(-6.18 -1.19)"/><rect class="cls-1" x="4.55" y="45.72" width="30.33" height="1.78"/><path class="cls-3" d="M41.06,49.06H10.73a.45.45,0,0,1-.49-.38V46.91a.45.45,0,0,1,.49-.38H41.06a.45.45,0,0,1,.49.38v1.78A.45.45,0,0,1,41.06,49.06Zm-29.83-.75H40.57v-1H11.23Z" transform="translate(-6.18 -1.19)"/><rect class="cls-2" x="3.77" y="3.82" width="31.89" height="32.32"/><path class="cls-1" d="M20.33,21.48H17.39l-.56,1.92H15l3-9.31h1.55l3,9.31H20.89Zm-2.49-1.55h2l-1-3.48Z" transform="translate(-6.18 -1.19)"/><path class="cls-1" d="M23.43,23.39V14.09h2.5a3.43,3.43,0,0,1,1.92.55,3.68,3.68,0,0,1,1.32,1.57,5.43,5.43,0,0,1,.47,2.32V19a5.44,5.44,0,0,1-.47,2.31,3.64,3.64,0,0,1-1.32,1.57,3.46,3.46,0,0,1-1.92.56Zm1.68-7.75v6.21h.81a1.73,1.73,0,0,0,1.5-.73A3.67,3.67,0,0,0,28,19v-.49a3.74,3.74,0,0,0-.51-2.15,1.72,1.72,0,0,0-1.5-.73Z" transform="translate(-6.18 -1.19)"/><path class="cls-1" d="M35.08,21a1,1,0,0,0-.34-.83,4.16,4.16,0,0,0-1.21-.61,8,8,0,0,1-1.38-.64,2.61,2.61,0,0,1-1.39-2.31,2.42,2.42,0,0,1,1.44-2.27A3.57,3.57,0,0,1,33.78,14a3.27,3.27,0,0,1,1.55.36,2.59,2.59,0,0,1,1.06,1,3,3,0,0,1,.38,1.5H35.09a1.35,1.35,0,0,0-.35-1,1.33,1.33,0,0,0-1-.35,1.41,1.41,0,0,0-1,.3,1,1,0,0,0-.34.78.93.93,0,0,0,.4.76A4.23,4.23,0,0,0,34,17.9a4.9,4.9,0,0,1,2.08,1.22,2.62,2.62,0,0,1,.65,1.82,2.37,2.37,0,0,1-.8,1.9,3.18,3.18,0,0,1-2.15.69,3.71,3.71,0,0,1-1.71-.39,2.81,2.81,0,0,1-1.18-1.08,3.05,3.05,0,0,1-.4-1.59h1.68q0,1.54,1.61,1.54a1.42,1.42,0,0,0,.93-.28A1,1,0,0,0,35.08,21Z" transform="translate(-6.18 -1.19)"/><path class="cls-1" d="M14.43,28.76H13.7l-1.41-2.39v2.39h-.73V25.14h.73l1.42,2.39V25.14h.72Z" transform="translate(-6.18 -1.19)"/><path class="cls-1" d="M17.8,27.72l.47-2.58H19l-.78,3.63h-.73l-.57-2.43-.57,2.43h-.73l-.78-3.63h.72L16,27.71l.58-2.58h.61Z" transform="translate(-6.18 -1.19)"/><path class="cls-1" d="M22.08,25.74H21v3h-.73v-3H19.21v-.61h2.87Z" transform="translate(-6.18 -1.19)"/><path class="cls-1" d="M24.36,28.76h-.73V25.14h.73Z" transform="translate(-6.18 -1.19)"/><path class="cls-1" d="M27.89,28.76h-.73l-1.41-2.39v2.39H25V25.14h.73l1.42,2.39V25.14h.72Z" transform="translate(-6.18 -1.19)"/><path class="cls-1" d="M29.83,27.86l.8-2.73h.81l-1.23,3.63h-.76l-1.22-3.63H29Z" transform="translate(-6.18 -1.19)"/><path class="cls-1" d="M33.89,27.19H32.49v1h1.64v.6H31.77V25.14h2.36v.61H32.49v.86h1.39Z" transform="translate(-6.18 -1.19)"/><path class="cls-1" d="M36.38,27.81a.39.39,0,0,0-.15-.33,1.88,1.88,0,0,0-.52-.24,3.65,3.65,0,0,1-.6-.25,1,1,0,0,1-.6-.9.89.89,0,0,1,.16-.52,1.05,1.05,0,0,1,.46-.36,1.7,1.7,0,0,1,.68-.13,1.55,1.55,0,0,1,.67.14,1.08,1.08,0,0,1,.46.4,1.06,1.06,0,0,1,.16.58h-.73a.5.5,0,0,0-.15-.39.62.62,0,0,0-.43-.14.66.66,0,0,0-.41.12.37.37,0,0,0-.15.31.35.35,0,0,0,.17.3,1.93,1.93,0,0,0,.51.22,2.18,2.18,0,0,1,.9.48,1,1,0,0,1,.28.71.88.88,0,0,1-.35.74,1.48,1.48,0,0,1-.93.27,1.76,1.76,0,0,1-.74-.15,1.18,1.18,0,0,1-.51-.42,1.1,1.1,0,0,1-.18-.62h.73q0,.6.7.6a.66.66,0,0,0,.4-.11A.36.36,0,0,0,36.38,27.81Z" transform="translate(-6.18 -1.19)"/><path class="cls-1" d="M40.25,25.74H39.18v3h-.73v-3H37.38v-.61h2.87Z" transform="translate(-6.18 -1.19)"/></svg>