<?xml version="1.0" standalone="no"?>
<!DOCTYPE svg PUBLIC "-//W3C//DTD SVG 20010904//EN"
 "http://www.w3.org/TR/2001/REC-SVG-20010904/DTD/svg10.dtd">
<svg version="1.0" xmlns="http://www.w3.org/2000/svg"
 width="800.000000pt" height="800.000000pt" viewBox="0 0 800.000000 800.000000"
 preserveAspectRatio="xMidYMid meet">
<metadata>
Created by potrace 1.11, written by Peter Selinger 2001-2013
</metadata>
<g transform="translate(0.000000,800.000000) scale(0.100000,-0.100000)"
fill="#000000" stroke="none">
<path d="M0 4000 l0 -4000 4000 0 4000 0 0 4000 0 4000 -4000 0 -4000 0 0
-4000z m1800 1173 l425 -698 3 698 2 697 220 0 220 0 0 -1065 0 -1065 -223 0
-223 0 -425 696 -424 697 -3 -697 -2 -696 -220 0 -220 0 0 1065 0 1065 223 0
222 0 425 -697z m1552 685 c3 -7 67 -342 144 -745 76 -402 141 -730 143 -727
2 2 81 336 175 741 l171 738 190 0 190 0 170 -737 c93 -406 172 -738 175 -738
4 0 69 333 146 740 l139 740 221 0 222 0 -19 -82 c-10 -46 -116 -525 -236
-1066 l-217 -982 -225 2 -224 3 -168 690 c-92 380 -170 697 -171 705 -4 14
-48 -160 -263 -1042 l-87 -358 -224 0 c-123 0 -224 2 -224 5 0 5 -456 2060
-467 2103 l-5 22 220 0 c167 0 221 -3 224 -12z m3948 -168 l0 -180 -325 0
-325 0 0 -885 0 -885 -225 0 -225 0 0 885 0 885 -320 0 -320 0 0 180 0 180
870 0 870 0 0 -180z m-6200 -2155 c37 -19 50 -43 50 -94 0 -120 -180 -154
-227 -44 -32 79 18 153 103 153 25 0 58 -7 74 -15z m3640 -200 l0 -94 68 -3
67 -3 3 -77 3 -78 -71 0 -70 0 0 -217 c0 -254 0 -253 87 -253 l53 0 0 -80 c0
-96 2 -95 -125 -95 -106 0 -154 18 -191 74 -36 55 -44 122 -44 357 l0 214 -55
0 -55 0 0 80 0 80 55 0 55 0 0 95 0 95 110 0 110 0 0 -95z m-2896 -97 c56 -17
109 -75 132 -145 17 -52 19 -90 19 -353 l0 -295 -107 -3 -107 -3 -3 290 c-3
288 -3 290 -27 315 -45 48 -147 43 -203 -10 l-28 -28 0 -283 0 -283 -105 0
-105 0 0 400 0 400 100 0 c99 0 100 0 100 -24 0 -53 9 -58 50 -25 21 17 55 37
76 44 49 18 154 19 208 3z m1520 -2 c144 -43 216 -159 232 -370 l7 -96 -257 0
-257 0 6 -22 c29 -96 94 -143 195 -142 68 0 105 14 157 58 l30 25 51 -59 51
-58 -19 -25 c-79 -100 -279 -145 -431 -97 -158 50 -244 170 -256 355 -13 208
86 379 250 431 57 17 183 17 241 0z m839 -24 c74 -37 109 -75 133 -146 25 -73
20 -77 -97 -74 l-101 3 -12 35 c-12 39 -61 70 -111 70 -45 0 -97 -31 -108 -64
-16 -48 15 -77 114 -104 46 -13 107 -30 135 -38 70 -19 143 -71 167 -118 26
-49 33 -123 17 -171 -46 -140 -267 -214 -461 -155 -61 18 -81 30 -128 78 -37
37 -61 71 -69 98 -22 77 -24 75 89 72 l101 -3 12 -35 c8 -26 22 -41 56 -57 92
-47 200 -11 200 66 0 31 -38 60 -100 77 -221 61 -274 88 -316 161 -23 38 -26
52 -22 112 4 79 28 123 93 170 68 49 118 61 235 58 97 -2 112 -5 173 -35z
m-3063 -372 l0 -401 -107 3 -108 3 -3 385 c-1 212 0 391 3 397 3 9 35 13 110
13 l105 0 0 -400z m1235 143 c38 -139 72 -253 76 -253 3 0 36 114 75 253 l69
252 113 3 114 3 -8 -23 c-4 -13 -64 -192 -134 -398 l-128 -375 -102 0 -102 0
-134 395 c-73 217 -134 396 -134 398 0 1 51 1 113 0 l112 -3 70 -252z"/>
<path d="M3184 3066 c-37 -16 -68 -57 -82 -108 l-10 -38 144 0 144 0 0 33 c0
93 -104 153 -196 113z"/>
</g>
</svg>
