<svg xmlns="http://www.w3.org/2000/svg" viewBox="0 0 225 79.34"><defs><style>.cls-1{fill:#1d1e1c;}</style></defs><title>Asset 4</title><g id="Layer_2" data-name="Layer 2"><g id="Layer_1-2" data-name="Layer 1"><polygon class="cls-1" points="36.07 17.92 17.44 76.45 0 76.45 27.48 1.72 45.91 1.72 72.84 76.45 54.63 76.45 36.07 17.92"/><path class="cls-1" d="M121.43,22.56a30.92,30.92,0,0,0-8.16-11.77A34.06,34.06,0,0,0,100.79,4,53,53,0,0,0,85.07,1.72H53.42L57.26,12.2,73.93,58.46V16.62H84.08a28.91,28.91,0,0,1,10.26,1.63A18.09,18.09,0,0,1,105.65,30,29.52,29.52,0,0,1,107,39.36q0,10.3-6,16.19t-17,5.89H75l5.41,15H85a51.77,51.77,0,0,0,15.73-2.3,34.22,34.22,0,0,0,12.47-6.94,32.3,32.3,0,0,0,8.22-11.54,40.52,40.52,0,0,0,3-16.2,44.39,44.39,0,0,0-2.93-16.91"/><path class="cls-1" d="M170.79,45.13a21,21,0,0,0-4.95-6.84,27,27,0,0,0-7-4.51,49.26,49.26,0,0,0-8-2.71,38.47,38.47,0,0,1-10.81-3.91c-2.65-1.56-3.93-3.58-3.93-6.13a5,5,0,0,1,.81-2.72,6.84,6.84,0,0,1,2.2-2.22A11.41,11.41,0,0,1,145.7,14a18.51,18.51,0,0,1,4.93.66,26.81,26.81,0,0,1,4.4,1.67c1.27.68,2.38,1.44,3.54,2.18s6.76,3.75,7.64,4.42c0,0,1-10.73,3.54-13.66a9.52,9.52,0,0,0-1.75-2,26.44,26.44,0,0,0-5-3.35,35.24,35.24,0,0,0-7.26-2.77A37.64,37.64,0,0,0,145.9,0a33.91,33.91,0,0,0-11.81,1.84,24.45,24.45,0,0,0-8.37,5,21,21,0,0,0-4.24,5.76,34.32,34.32,0,0,1,5.62,9.3,48,48,0,0,1,3.07,17.63c0,.47,0,.9-.06,1.4.21.12.38.27.59.38a33.68,33.68,0,0,0,7.69,2.9c5.72,1.48,9.86,3,12.5,4.51s4,3.65,4,6.4a6.52,6.52,0,0,1-1,3.39,7.77,7.77,0,0,1-2.48,2.57,11.25,11.25,0,0,1-3.4,1.61,12.08,12.08,0,0,1-3.71.55,20.46,20.46,0,0,1-6-.84,24.74,24.74,0,0,1-5.09-2.16,29.28,29.28,0,0,1-4.34-3q-.85-.73-1.62-1.5c-.09.22-.15.48-.25.73a35.12,35.12,0,0,1-8.75,12.22l-.15.13c.57.51,1.13,1,1.78,1.51a38.46,38.46,0,0,0,14.66,6.74,43.9,43.9,0,0,0,10,1,34.57,34.57,0,0,0,11.07-1.73,27.66,27.66,0,0,0,8.89-4.85,23.81,23.81,0,0,0,5.93-7.33,19.56,19.56,0,0,0,2.2-9.24,24,24,0,0,0-1.84-9.88"/><path class="cls-1" d="M218.21,39.47A26.74,26.74,0,0,0,211.27,35a49.92,49.92,0,0,0-8-2.71,38.43,38.43,0,0,1-10.82-3.91c-2.65-1.56-3.92-3.58-3.92-6.13a5.12,5.12,0,0,1,.8-2.72,7,7,0,0,1,2.21-2.22,11.16,11.16,0,0,1,3-1.51,11.44,11.44,0,0,1,3.5-.55,18.4,18.4,0,0,1,4.93.66,26.81,26.81,0,0,1,4.4,1.67,35.2,35.2,0,0,1,3.11,1.89L220.75,9.19a5.92,5.92,0,0,0-.51-.53,26.05,26.05,0,0,0-4.84-3.54,35,35,0,0,0-7.26-2.77,37.61,37.61,0,0,0-9.86-1.17A34,34,0,0,0,186.46,3a24.54,24.54,0,0,0-8.37,5c-1.74,1.7-3.53,3.62-4.23,5.76-7,21.62,8.64,27.83,8.63,28.33.2.12.38.27.58.38a33.68,33.68,0,0,0,7.69,2.9c5.72,1.48,9.86,3,12.51,4.51s4,3.65,4,6.4a6.54,6.54,0,0,1-1,3.39,7.81,7.81,0,0,1-2.49,2.57,11.31,11.31,0,0,1-3.39,1.61,12.14,12.14,0,0,1-3.72.55,20.34,20.34,0,0,1-6-.84,24.82,24.82,0,0,1-5.1-2.16,29.28,29.28,0,0,1-4.34-3c-.57-.49-1.62-1.4-2.13-1.92,0,0-2.75,10.95-6.82,15a38.66,38.66,0,0,0,6.51,3.93,39.36,39.36,0,0,0,8.11,2.79,44,44,0,0,0,10,1A34.57,34.57,0,0,0,208,77.61a27.55,27.55,0,0,0,8.89-4.85,23.81,23.81,0,0,0,5.93-7.33,19.45,19.45,0,0,0,2.2-9.24,24,24,0,0,0-1.83-9.88A21.17,21.17,0,0,0,218.21,39.47Z"/></g></g></svg>