<svg id="Слой_1" data-name="Слой 1" xmlns="http://www.w3.org/2000/svg" viewBox="0 0 144 144"><defs><style>.cls-1{fill:#ef3124;}.cls-2{fill:#fff;}</style></defs><title>B</title><rect class="cls-1" width="144" height="144"/><path class="cls-2" d="M31.69,122.72V21.28h38q19.74,0,30,7.07t10.21,20.73a21.85,21.85,0,0,1-4.1,13.13,23.5,23.5,0,0,1-11.4,8.32,23.11,23.11,0,0,1,13.15,7.87,22.25,22.25,0,0,1,4.81,14.49q0,14.63-10,22.15t-28.46,7.66ZM54,63.78H70.58Q87.5,63.5,87.5,51.17q0-6.9-4.28-9.93t-13.52-3H54Zm0,14.77v27.38H73.19q7.9,0,12.33-3.52A11.72,11.72,0,0,0,90,92.69q0-13.93-15.42-14.14Z" transform="translate(0 0)"/></svg>