<svg id="Слой_1" data-name="Слой 1" xmlns="http://www.w3.org/2000/svg" viewBox="0 0 144 144"><defs><style>.cls-1{fill:#ef3124;}.cls-2{fill:#fff;}</style></defs><title>C</title><rect class="cls-1" width="144" height="144"/><path class="cls-2" d="M121.5,92.63q-1.43,19.95-14.62,31.41T72.13,135.49q-23.59,0-37.11-16T21.5,75.57V68q0-17.83,6.23-31.41A47,47,0,0,1,45.55,15.77Q57.14,8.51,72.47,8.51q21.23,0,34.2,11.46t15,32.17H96.39q-.93-12-6.61-17.36T72.47,29.39q-12.64,0-18.91,9.12T47.11,66.82v9.34q0,20,6,29.28t19,9.25q11.71,0,17.48-5.39t6.61-16.68Z" transform="translate(0 0)"/></svg>