<svg id="Слой_1" data-name="Слой 1" xmlns="http://www.w3.org/2000/svg" viewBox="0 0 150 150"><defs><style>.cls-1{fill:#e9002c;}.cls-2{fill:#fff;}</style></defs><title>IQ</title><rect class="cls-1" width="150" height="150"/><path class="cls-2" d="M44.29,107.41H28.57V29.74H44.29Z"/><path class="cls-2" d="M121.43,70.34A47.52,47.52,0,0,1,118,89.25a32.41,32.41,0,0,1-9.59,12.88l12.68,10.14-10,9L94.81,108a33.72,33.72,0,0,1-5.76.48,31.32,31.32,0,0,1-16.93-4.64A30.65,30.65,0,0,1,60.59,90.58a46.22,46.22,0,0,1-4.14-19.82V66.92a47.35,47.35,0,0,1,4.06-20.19A30.61,30.61,0,0,1,72,33.35a31.15,31.15,0,0,1,17-4.67,31.15,31.15,0,0,1,17,4.67,30.63,30.63,0,0,1,11.48,13.39,47.23,47.23,0,0,1,4.06,20.14ZM105.5,66.82q0-12.22-4.3-18.56a13.93,13.93,0,0,0-12.26-6.35,13.93,13.93,0,0,0-12.21,6.27q-4.3,6.27-4.35,18.38v3.79q0,11.9,4.3,18.46A13.9,13.9,0,0,0,89,95.36,13.77,13.77,0,0,0,101.2,89q4.24-6.32,4.3-18.43Z"/></svg>